HIERARCHY
ROOT Hips
{
  OFFSET 0 89.5177 0.535
  CHANNELS 6 Xposition Yposition Zposition Zrotation Xrotation Yrotation
  JOINT Spine
  {
    OFFSET 12.0259 -0.162855 1.69034e-005
    CHANNELS 3 Zrotation Xrotation Yrotation
    JOINT Spine1
    {
      OFFSET 15.3169 -0.0121922 0
      CHANNELS 3 Zrotation Xrotation Yrotation
      JOINT Spine2
      {
        OFFSET 15.3176 -0.0121908 0
        CHANNELS 3 Zrotation Xrotation Yrotation
        JOINT Neck
        {
          OFFSET 19.9142 1.56338 0
          CHANNELS 3 Zrotation Xrotation Yrotation
          JOINT Head
          {
            OFFSET 6.92651 0 0
            CHANNELS 3 Zrotation Xrotation Yrotation
            End Site
            {
              OFFSET 20.7666 0 0
            }
          }
          JOINT LeftShoulder
          {
            OFFSET -6.20654 0.708824 7.28219
            CHANNELS 3 Zrotation Xrotation Yrotation
            JOINT LeftArm
            {
              OFFSET 14.108 0 -1.52588e-005
              CHANNELS 3 Zrotation Xrotation Yrotation
              JOINT LeftForeArm
              {
                OFFSET 28.5802 0 0
                CHANNELS 3 Zrotation Xrotation Yrotation
                JOINT LeftHand
                {
                  OFFSET 27.092 0 0
                  CHANNELS 3 Zrotation Xrotation Yrotation
                  End Site
                  {
                    OFFSET 9.55928 -0.186424 0.145352
                  }
                }
              }
            }
          }
          JOINT RightShoulder
          {
            OFFSET -6.20654 0.708866 -7.28218
            CHANNELS 3 Zrotation Xrotation Yrotation
            JOINT RightArm
            {
              OFFSET 14.108 0 1.52588e-005
              CHANNELS 3 Zrotation Xrotation Yrotation
              JOINT RightForeArm
              {
                OFFSET 28.5802 0 0
                CHANNELS 3 Zrotation Xrotation Yrotation
                JOINT RightHand
                {
                  OFFSET 27.092 0 0
                  CHANNELS 3 Zrotation Xrotation Yrotation
                  End Site
                  {
                    OFFSET 9.55929 -0.186417 -0.145354
                  }
                }
              }
            }
          }
        }
      }
    }
  }
  JOINT LeftUpLeg
  {
    OFFSET 0.005 -0.535 8.837
    CHANNELS 3 Zrotation Xrotation Yrotation
    JOINT LeftLeg
    {
      OFFSET 39.9035 0 0
      CHANNELS 3 Zrotation Xrotation Yrotation
      JOINT LeftFoot
      {
        OFFSET 39.6689 0 0
        CHANNELS 3 Zrotation Xrotation Yrotation
        JOINT LeftToe
        {
          OFFSET 10.1624 13.6296 0
          CHANNELS 3 Zrotation Xrotation Yrotation
          End Site
          {
            OFFSET 8.38147 0 0
          }
        }
      }
    }
  }
  JOINT RightUpLeg
  {
    OFFSET 0.005 -0.535 -8.837
    CHANNELS 3 Zrotation Xrotation Yrotation
    JOINT RightLeg
    {
      OFFSET 39.9035 0 0
      CHANNELS 3 Zrotation Xrotation Yrotation
      JOINT RightFoot
      {
        OFFSET 39.6689 0 0
        CHANNELS 3 Zrotation Xrotation Yrotation
        JOINT RightToe
        {
          OFFSET 10.1624 13.6296 0
          CHANNELS 3 Zrotation Xrotation Yrotation
          End Site
          {
            OFFSET 8.38147 0 0
          }
        }
      }
    }
  }
}
MOTION
Frames:	12
Frame Time:	0.0333333
559.314 85.6175 -156.84 124.542 -79.4171 33.2821 -1.21738 -0.444774 -0.547901 -2.43906 -0.877323 -1.10499 -2.43906 -0.877323 -1.105 -8.30758e-012 -9.0191e-006 -5.27751e-005 11.1109 6.74849 -5.50732 179.718 -14.8087 -91.1014 -35.8209 -48.6693 -7.69653 -6.52714e-006 6.36111e-015 7.95139e-016 -38.051 -26.5377 -26.787 179.203 5.55519 98.1766 68.2349 63.517 -75.3829 -2.006 1.59028e-015 -2.38542e-015 -33.4565 19.6465 22.5268 -19.5694 1.81988 -176.977 -35.3038 0 -0 21.9513 7.00511 -1.72742 90 1.80097e-020 -0 -18.4925 -3.94205 -178.252 -33.9404 1.59028e-015 7.95139e-016 21.3051 -2.9128 -1.76619 90 6.68255e-021 -1.59028e-015 
559.283 85.6189 -156.857 124.735 -79.4309 33.4639 -1.22299 -0.444639 -0.540294 -2.45023 -0.877161 -1.08982 -2.45023 -0.87716 -1.08983 -8.30738e-012 -9.0191e-006 -5.27751e-005 11.2039 6.71635 -5.47312 179.732 -14.8035 -91.05 -35.8315 -48.5033 -7.78462 -6.51286e-006 -6.36111e-015 7.95139e-016 -38.1443 -26.6694 -26.8868 179.201 5.56838 98.1781 68.2231 63.5037 -75.4189 -2.01636 0 7.95139e-016 -33.4652 19.6674 22.5444 -19.5643 1.81446 -176.988 -35.2978 3.18055e-015 7.95139e-016 21.9688 6.96679 -1.70683 90 -1.0711e-020 -7.95139e-016 -18.4954 -3.88527 -178.248 -33.9227 0 -3.97569e-016 21.3077 -2.87625 -1.74461 90 -9.85794e-021 -1.59028e-015 
559.247 85.617 -156.879 125.009 -79.4703 33.7398 -1.22431 -0.433989 -0.539388 -2.45261 -0.855872 -1.08779 -2.45261 -0.855871 -1.0878 -8.30738e-012 -9.0191e-006 -5.27751e-005 11.2733 6.62218 -5.37563 179.721 -14.7971 -91.0904 -35.8857 -48.6617 -7.8279 -6.49892e-006 3.18055e-015 2.38542e-015 -38.0348 -26.5097 -26.7261 179.199 5.6057 98.1414 67.9878 63.4931 -75.2378 -1.98487 0 -0 -33.5017 19.7184 22.5648 -19.5527 1.83894 -177.01 -35.2987 3.18055e-015 -7.95139e-016 21.9949 6.9421 -1.68131 90 2.42657e-020 -7.95139e-016 -18.5022 -3.84164 -178.269 -33.9295 2.38542e-015 3.97569e-016 21.3276 -2.90524 -1.71456 90 4.7394e-021 -3.18055e-015 
559.211 85.6146 -156.897 125.221 -79.4985 33.954 -1.22549 -0.439001 -0.532926 -2.45182 -0.866035 -1.07497 -2.45182 -0.866035 -1.07498 -8.30748e-012 -9.0191e-006 -5.27751e-005 11.2827 6.63087 -5.30718 179.719 -14.824 -91.098 -35.9039 -48.8202 -7.87934 -6.48533e-006 -6.36111e-015 -1.59028e-015 -38.1452 -26.446 -26.8131 179.201 5.58699 98.1545 68.122 63.4529 -75.3906 -1.99287 1.59028e-015 7.95139e-016 -33.3543 19.6798 22.544 -19.5437 1.86009 -177.03 -35.3004 -1.59028e-015 -1.59028e-015 22.0186 6.9148 -1.65867 90 2.18391e-019 7.95139e-016 -18.5161 -3.82328 -178.291 -33.9421 7.95139e-016 1.19271e-015 21.3429 -2.92431 -1.6911 90 1.94315e-020 -1.59028e-015 
559.177 85.6122 -156.914 125.395 -79.509 34.1302 -1.22644 -0.438929 -0.5292 -2.45173 -0.865901 -1.06743 -2.45173 -0.8659 -1.06744 -8.30768e-012 -9.0191e-006 -5.27751e-005 11.3634 6.58511 -5.27363 179.715 -14.7594 -91.1193 -35.7684 -48.7197 -7.7976 -6.47209e-006 0 -0 -38.1935 -26.497 -26.8561 179.201 5.59558 98.1375 67.955 63.4032 -75.2185 -1.95479 -1.59028e-015 7.95139e-016 -33.29 19.7838 22.6055 -19.5432 1.85278 -177.057 -35.3013 -1.59028e-015 -7.95139e-016 22.0388 6.88958 -1.63726 90 -1.32703e-021 -1.59028e-015 -18.5291 -3.78867 -178.312 -33.9531 7.95139e-016 3.97569e-016 21.3624 -2.93471 -1.66401 90 -1.59244e-020 1.59028e-015 
559.139 85.6106 -156.936 125.638 -79.5452 34.3763 -1.22723 -0.438725 -0.520343 -2.45162 -0.865516 -1.04971 -2.45162 -0.865515 -1.04972 -8.30718e-012 -9.0191e-006 -5.27751e-005 11.3789 6.56416 -5.24787 179.722 -14.8002 -91.0864 -35.7277 -48.6192 -7.76779 -6.45922e-006 9.54166e-015 -7.95139e-016 -38.0384 -26.4864 -26.7568 179.208 5.56247 98.1164 67.8337 63.3765 -75.0787 -1.94969 3.18055e-015 1.59028e-015 -33.1996 19.7299 22.5744 -19.5307 1.90101 -177.075 -35.2991 0 -7.95139e-016 22.062 6.87432 -1.61135 90 5.59249e-021 -7.95139e-016 -18.5335 -3.71984 -178.321 -33.9591 1.59028e-015 3.97569e-016 21.3813 -2.91048 -1.6421 90 -2.27965e-020 -1.59028e-015 
559.102 85.6096 -156.96 125.762 -79.5532 34.503 -1.22801 -0.438405 -0.518056 -2.452 -0.864906 -1.04512 -2.452 -0.864906 -1.04513 -8.30728e-012 -9.0191e-006 -5.27751e-005 11.381 6.56551 -5.19697 179.712 -14.8101 -91.1265 -35.6147 -48.493 -7.62914 -6.44673e-006 3.18055e-015 -1.59028e-015 -38.0425 -26.6051 -26.7927 179.21 5.56873 98.0836 67.9892 63.3812 -75.2217 -1.87782 0 -0 -33.4128 19.7615 22.6892 -19.5112 1.91283 -177.092 -35.2907 0 -0 22.0849 6.86103 -1.59525 90 -1.13746e-020 7.95139e-016 -18.5276 -3.70496 -178.34 -33.9591 0 7.95139e-016 21.4016 -2.92544 -1.62122 90 1.81993e-020 -0 
559.062 85.6088 -156.99 125.898 -79.5633 34.641 -1.22876 -0.437986 -0.511084 -2.45267 -0.864109 -1.03111 -2.45267 -0.864109 -1.03112 -8.30758e-012 -9.0191e-006 -5.27751e-005 11.3512 6.58505 -5.15521 179.71 -14.7943 -91.1343 -35.5122 -48.4108 -7.51575 -6.43463e-006 -3.18055e-015 -7.95139e-016 -38.1745 -26.6865 -26.9424 179.211 5.57608 98.0616 68.0737 63.4016 -75.2788 -1.84867 3.18055e-015 -1.59028e-015 -33.3738 19.7294 22.671 -19.4777 1.79246 -177.143 -35.2774 0 1.59028e-015 22.1117 6.75687 -1.57723 90 -1.47869e-020 -7.95139e-016 -18.5233 -3.71214 -178.369 -33.9591 -7.95139e-016 -0 21.421 -2.95314 -1.59485 90 -1.21329e-020 1.59028e-015 
559.025 85.6078 -157.004 126.13 -79.5363 34.8716 -1.22962 -0.437485 -0.50858 -2.46322 -0.863153 -1.02618 -2.46322 -0.863153 -1.02619 -8.30758e-012 -9.0191e-006 -5.27751e-005 11.3529 6.51193 -5.12524 179.718 -14.7697 -91.1058 -35.4961 -48.285 -7.53842 -6.42294e-006 0 -0 -38.1771 -26.7124 -26.9789 179.216 5.57198 98.0255 67.8326 63.3706 -75.0084 -1.86718 0 2.38542e-015 -33.3583 19.7786 22.6821 -19.5136 1.83952 -177.171 -35.2775 1.59028e-015 -3.18055e-015 22.1234 6.77908 -1.54205 90 6.91952e-021 -2.38542e-015 -18.5565 -3.67477 -178.396 -33.9591 -7.95139e-016 -7.95139e-016 21.4419 -2.92636 -1.56183 90 -2.42657e-020 -1.59028e-015 
558.988 85.6072 -157.03 126.324 -79.5555 35.0679 -1.23013 -0.43692 -0.501236 -2.46415 -0.862073 -1.01156 -2.46415 -0.862073 -1.01157 -8.30758e-012 -9.0191e-006 -5.27751e-005 11.36 6.56125 -5.14909 179.724 -14.7439 -91.0833 -35.4194 -48.3085 -7.53528 -6.41167e-006 -6.36111e-015 7.95139e-016 -38.146 -26.6915 -26.8995 179.219 5.53693 98.041 67.8267 63.3611 -74.9902 -1.81681 0 2.38542e-015 -33.3854 19.7878 22.752 -19.5014 1.87422 -177.184 -35.2689 1.59028e-015 -0 22.1431 6.7813 -1.52377 90 -1.70618e-021 7.95139e-016 -18.5583 -3.6534 -178.413 -33.9591 0 -0 21.4574 -2.93808 -1.54189 90 0 1.59028e-015 
558.951 85.6064 -157.054 126.665 -79.561 35.4096 -1.23934 -0.436306 -0.501253 -2.48253 -0.860897 -1.00722 -2.48253 -0.860897 -1.00723 -8.30753e-012 -9.0191e-006 -5.27751e-005 11.409 6.50827 -5.14282 179.721 -14.7351 -91.0957 -35.3965 -48.3164 -7.50097 -6.40082e-006 0 -2.38542e-015 -38.1474 -26.7204 -26.9655 179.217 5.55301 98.0415 67.754 63.3526 -74.9534 -1.80108 1.59028e-015 -1.59028e-015 -33.3595 19.8406 22.7891 -19.518 1.94116 -177.196 -35.2607 -6.36111e-015 -0 22.1639 6.78759 -1.49985 90 -5.42661e-021 -7.95139e-016 -18.5895 -3.64547 -178.44 -33.9591 0 3.97569e-016 21.4735 -2.97295 -1.51454 90 1.47869e-020 -1.59028e-015 
558.918 85.6057 -157.086 126.898 -79.5649 35.6426 -1.24507 -0.435661 -0.501314 -2.49392 -0.859659 -1.00439 -2.49392 -0.859658 -1.0044 -8.30748e-012 -9.0191e-006 -5.27751e-005 11.5273 6.60248 -5.1661 179.715 -14.7395 -91.1217 -35.3728 -48.4649 -7.47698 -6.39042e-006 6.36111e-015 7.95139e-016 -38.1214 -26.6768 -26.8903 179.208 5.60865 98.0505 67.9616 63.3637 -75.2385 -1.84582 -1.59028e-015 -7.95139e-016 -33.1541 19.7826 22.5939 -19.5169 1.99392 -177.217 -35.2526 -3.18055e-015 -7.95139e-016 22.1868 6.80543 -1.46905 90 -1.27964e-020 2.38542e-015 -18.5959 -3.62022 -178.464 -33.9546 1.59028e-015 3.97569e-016 21.496 -2.97377 -1.48432 90 2.04742e-020 -1.59028e-015 
